# xmcd
#
# Track frame offsets: 
#        150
#        14113
#        29650
#        44924
#        59658
#        73867
#        88953
#        103903
#        117989
#        131093
#        143928
#        158318
#        171380
#        184613
#        197089
#        209578
#        221998
#        235505
#        249393
#        263180
#        276475
#
# Disc length: 3867 seconds
#
# Revision: 0
# Processed by: cddbd v1.5.2PL0 Copyright (c) Steve Scherf et al.
# Submitted via: ExactAudioCopyFreeDBPlugin 1.0
#
DISCID=5c0f1915
DTITLE=Minnie, Memphis - Memphis Minnie
DYEAR=1938
DGENRE=
TTITLE0=Down in the Mouf' Blues
TTITLE1=Low Land Moan
TTITLE2=Woman to Woman
TTITLE3=You're Getting Old on Your Job
TTITLE4=What Makes You Act Like That
TTITLE5=You Had too Much
TTITLE6=Don't Wear It Show
TTITLE7=Chain Gang Blues
TTITLE8=Wringing and Twisting Blues
TTITLE9=Dead Drunk Blues
TTITLE10=Ma Rainey's Black Bottom
TTITLE11=New Boweavil Blues
TTITLE12=Moonshine Blues
TTITLE13=Deep Moanin' Blues
TTITLE14=Has Anyone Seen My Man
TTITLE15=I Hate to See the Sun Go Down
TTITLE16=Ice Man
TTITLE17=Hoodoo Lady
TTITLE18=I'm a Bad Luck Woman
TTITLE19=Black Cat Blues
TTITLE20=Good Morning
EXTD=
EXTT0=
EXTT1=
EXTT2=
EXTT3=
EXTT4=
EXTT5=
EXTT6=
EXTT7=
EXTT8=
EXTT9=
EXTT10=
EXTT11=
EXTT12=
EXTT13=
EXTT14=
EXTT15=
EXTT16=
EXTT17=
EXTT18=
EXTT19=
EXTT20=
PLAYORDER=
